# xmcd
#
# Track frame offsets: 
#        150
#        15051
#        26060
#        42278
#        58150
#        75953
#        92974
#        110954
#        131939
#        143124
#        160359
#
# Disc length: 2406 seconds
#
# Revision: 0
# Processed by: cddbd v1.5.2PL0 Copyright (c) Steve Scherf et al.
# Submitted via: ExactAudioCopy v0.99pb4
#
DISCID=9109640b
DTITLE=Big Maybelle - Saga of the Good Life and Hard Times
DYEAR=1967
DGENRE=Soul
TTITLE0=How It Lies
TTITLE1=My Mother's Eyes
TTITLE2=Old Love Never Dies
TTITLE3=It's Been Raining
TTITLE4=What A Difference A Day Makes
TTITLE5=Gloomy Sunday
TTITLE6=Why Was I Born
TTITLE7=The Masquerade Is Over
TTITLE8=Love, Careless Love
TTITLE9=Maybelle Sings The Blues
TTITLE10=This Bitter Earth
EXTD=
EXTT0=
EXTT1=
EXTT2=
EXTT3=
EXTT4=
EXTT5=
EXTT6=
EXTT7=
EXTT8=
EXTT9=
EXTT10=
PLAYORDER=
